# xmcd
#
# Track frame offsets: 
#        150
#        15692
#        36869
#        59238
#        72387
#        86458
#        108379
#        148034
#        167260
#        180504
#        196633
#        207026
#
# Disc length: 3079 seconds
#
# Revision: 0
# Processed by: cddbd v1.5.2PL0 Copyright (c) Steve Scherf et al.
# Submitted via: ExactAudioCopy v0.90b4
#
DISCID=9f0c050c
DTITLE=Julien Brunetaud - Driftin' Blues
DYEAR=2008
DGENRE=Blues
TTITLE0=Everybody Boogie
TTITLE1=Driftin' Blues
TTITLE2=Just Another Blues
TTITLE3=FSR
TTITLE4=Music Is My Business
TTITLE5=Soul Burnin'
TTITLE6=The Blues Never Die
TTITLE7=Darling How Long?
TTITLE8=I Got To Learn To Do The Mambo
TTITLE9=You're Runnin' Wild
TTITLE10=La Main
TTITLE11=Blues Walk
EXTD=
EXTT0=
EXTT1=
EXTT2=
EXTT3=
EXTT4=
EXTT5=
EXTT6=
EXTT7=
EXTT8=
EXTT9=
EXTT10=
EXTT11=
PLAYORDER=
